<svg xmlns="http://www.w3.org/2000/svg" width="51.905" height="71.303" viewBox="0 0 51.905 71.303">
  <g id="Group_1" data-name="Group 1" transform="translate(-939.26 -52.283)">
    <path id="Path_10" data-name="Path 10" d="M23.086-4.8v3.9a9.692,9.692,0,0,1-1.274.5,17.242,17.242,0,0,1-1.875.483q-1.069.22-2.417.366a27.208,27.208,0,0,1-2.93.146A12.938,12.938,0,0,1,10.928.1,6.5,6.5,0,0,1,8.145-1.509a7.391,7.391,0,0,1-1.758-2.93,13.862,13.862,0,0,1-.615-4.438V-28.066H1.26v-3.076A7.625,7.625,0,0,0,4.717-31.9a8.218,8.218,0,0,0,2.432-1.758A12.512,12.512,0,0,0,9.9-39.609h4.98v7.441h7.676v4.1H14.883V-9.492a6.811,6.811,0,0,0,.923,3.984C16.421-4.668,22.461-4.648,23.086-4.8Zm2.93,1.611a8.186,8.186,0,0,0,1.421-.132,3.664,3.664,0,0,0,1.377-.542,3.25,3.25,0,0,0,1.055-1.172,4.216,4.216,0,0,0,.425-2.051V-25.312a3.751,3.751,0,0,0-.425-1.919A3.167,3.167,0,0,0,28.8-28.345a3.745,3.745,0,0,0-1.392-.513,9.014,9.014,0,0,0-1.392-.117h-.7v-3.193H39.4V-7.09a4.216,4.216,0,0,0,.425,2.051,3.25,3.25,0,0,0,1.055,1.172,3.668,3.668,0,0,0,1.392.542,8.288,8.288,0,0,0,1.406.132h.7V0H25.313V-3.193Z" transform="translate(938 123)" fill="#fff"/>
    <path id="Icon_weather-stars" data-name="Icon weather-stars" d="M0,17.177c3.419-.192,6.3-1.967,8.673-5.278A19.783,19.783,0,0,0,12.2,0a19.758,19.758,0,0,0,3.563,11.851c2.375,3.311,5.29,5.086,8.709,5.278-3.419.192-6.334,1.967-8.709,5.278A19.758,19.758,0,0,0,12.2,34.259,19.983,19.983,0,0,0,8.673,22.407C6.3,19.145,3.419,17.369,0,17.177Z" transform="matrix(0.966, 0.259, -0.259, 0.966, 967.474, 52.298)" fill="#c796db" stroke="#fff" stroke-linecap="round" stroke-width="2"/>
  </g>
</svg>
